<svg width="405" height="381" viewBox="0 0 405 381" fill="none" xmlns="http://www.w3.org/2000/svg">
<path d="M202.5 231.063L51.5874 373.032C45.9411 378.344 38.7547 381 30.0285 381C21.3023 381 14.116 378.344 8.46957 373.032C2.82318 367.72 0 360.96 0 352.751C0 344.542 2.82318 337.781 8.46957 332.47L159.382 190.5L8.46957 48.5304C2.82318 43.2186 0 36.4582 0 28.249C0 20.0399 2.82318 13.2795 8.46957 7.96767C14.116 2.65588 21.3023 0 30.0285 0C38.7547 0 45.9411 2.65588 51.5874 7.96767L202.5 149.937L353.413 7.96767C359.059 2.65588 366.245 0 374.971 0C383.698 0 390.884 2.65588 396.53 7.96767C402.177 13.2795 405 20.0399 405 28.249C405 36.4582 402.177 43.2186 396.53 48.5304L245.618 190.5L396.53 332.47C402.177 337.781 405 344.542 405 352.751C405 360.96 402.177 367.72 396.53 373.032C390.884 378.344 383.698 381 374.971 381C366.245 381 359.059 378.344 353.413 373.032L202.5 231.063Z" fill="white"/>
</svg>
